<svg xmlns="http://www.w3.org/2000/svg" width="1080" height="1620" viewBox="0 0 1080 1620"><rect width="1080" height="1620" fill="#fff"/><path d="M64 230H1016" stroke="#5b46a8" stroke-width="8"/><g font-family="Pretendard, Noto Sans KR, Apple SD Gothic Neo, sans-serif"><text x="64" y="108" fill="#20232b" font-size="58" font-weight="700">숨고 서비스 가격표 ③</text><text x="66" y="174" fill="#5b46a8" font-size="30" font-weight="600">사업계획서 · 자막 · 크롤링</text><rect x="64" y="300" width="952" height="350" rx="22" fill="#fff" stroke="#e1e4ea" stroke-width="3"/><rect x="64" y="300" width="10" height="350" rx="5" fill="#5b46a8"/><text x="108" y="368" fill="#20232b" font-size="40" font-weight="700">사업계획서 작성</text><text x="108" y="430" fill="#555d6b" font-size="28">원가 160,000원</text><text x="108" y="495" fill="#5b46a8" font-size="46" font-weight="700">할인가 128,000 / 1건</text><text x="108" y="550" fill="#555d6b" font-size="27">고객 자료 기반 5쪽 안팎 초안</text><text x="108" y="589" fill="#555d6b" font-size="27">수정 1회 · 시장조사·재무모델 별도</text><rect x="64" y="710" width="952" height="350" rx="22" fill="#fff" stroke="#e1e4ea" stroke-width="3"/><rect x="64" y="710" width="10" height="350" rx="5" fill="#5b46a8"/><text x="108" y="778" fill="#20232b" font-size="40" font-weight="700">자막 제작</text><text x="108" y="840" fill="#555d6b" font-size="28">원가 32,000원</text><text x="108" y="905" fill="#5b46a8" font-size="46" font-weight="700">할인가 26,000 / 1건</text><text x="108" y="960" fill="#555d6b" font-size="27">대본 제공 · 한국어 영상 5분 이내</text><text x="108" y="999" fill="#555d6b" font-size="27">기본 SRT · 번역·삽입 별도</text><rect x="64" y="1120" width="952" height="350" rx="22" fill="#fff" stroke="#e1e4ea" stroke-width="3"/><rect x="64" y="1120" width="10" height="350" rx="5" fill="#5b46a8"/><text x="108" y="1188" fill="#20232b" font-size="40" font-weight="700">데이터 크롤링</text><text x="108" y="1250" fill="#555d6b" font-size="28">원가 96,000원</text><text x="108" y="1315" fill="#5b46a8" font-size="46" font-weight="700">할인가 77,000 / 1건</text><text x="108" y="1370" fill="#555d6b" font-size="27">공개 정적 사이트 1곳 · 1,000행 이내</text><text x="108" y="1409" fill="#555d6b" font-size="27">Excel · Python 결과물</text><text x="64" y="1570" fill="#555d6b" font-size="23">메로나 문서사무소 · 기본 범위 기준 · 최소 거래 15,000원</text></g></svg>