<svg xmlns="http://www.w3.org/2000/svg" width="1080" height="1620" viewBox="0 0 1080 1620"><rect width="1080" height="1620" fill="#fff"/><path d="M64 230H1016" stroke="#5b46a8" stroke-width="8"/><g font-family="Pretendard, Noto Sans KR, Apple SD Gothic Neo, sans-serif"><text x="64" y="108" fill="#20232b" font-size="58" font-weight="700">진행 안내</text><text x="66" y="174" fill="#5b46a8" font-size="30" font-weight="600">추가금 · 샘플 · 납품 원칙</text><rect x="64" y="300" width="952" height="350" rx="22" fill="#fff" stroke="#e1e4ea" stroke-width="3"/><rect x="64" y="300" width="10" height="350" rx="5" fill="#5b46a8"/><text x="108" y="368" fill="#20232b" font-size="40" font-weight="700">샘플 구매</text><text x="108" y="430" fill="#555d6b" font-size="28">원가 할인가 기준원</text><text x="108" y="495" fill="#5b46a8" font-size="46" font-weight="700">할인가 25%</text><text x="108" y="550" fill="#555d6b" font-size="27">일부 결과물 먼저 확인</text><text x="108" y="589" fill="#555d6b" font-size="27">본 작업 전환 시 샘플비 전액 차감</text><rect x="64" y="710" width="952" height="350" rx="22" fill="#fff" stroke="#e1e4ea" stroke-width="3"/><rect x="64" y="710" width="10" height="350" rx="5" fill="#5b46a8"/><text x="108" y="778" fill="#20232b" font-size="40" font-weight="700">작업 순서</text><text x="108" y="840" fill="#555d6b" font-size="28">원가 고용·결제 확인원</text><text x="108" y="905" fill="#5b46a8" font-size="46" font-weight="700">할인가 제작 시작 / 1건</text><text x="108" y="960" fill="#555d6b" font-size="27">초안 작성 → 교차검수 → 최종 확인</text><text x="108" y="999" fill="#555d6b" font-size="27">요청 형식 파일 전달</text><rect x="64" y="1120" width="952" height="350" rx="22" fill="#fff" stroke="#e1e4ea" stroke-width="3"/><rect x="64" y="1120" width="10" height="350" rx="5" fill="#5b46a8"/><text x="108" y="1188" fill="#20232b" font-size="40" font-weight="700">추가 작업</text><text x="108" y="1250" fill="#555d6b" font-size="28">원가 사전 안내원</text><text x="108" y="1315" fill="#5b46a8" font-size="46" font-weight="700">할인가 동의 후 진행 / 1건</text><text x="108" y="1370" fill="#555d6b" font-size="27">분량·문항·수정 초과 시 금액 안내</text><text x="108" y="1409" fill="#555d6b" font-size="27">15,000원 미만 거래는 제안하지 않음</text><text x="64" y="1570" fill="#555d6b" font-size="23">메로나 문서사무소 · 기본 범위 기준 · 최소 거래 15,000원</text></g></svg>